<?xml version="1.0" encoding="utf-8"?>
<!-- Generator: Adobe Illustrator 14.0.0, SVG Export Plug-In . SVG Version: 6.00 Build 43363)  -->
<!DOCTYPE svg PUBLIC "-//W3C//DTD SVG 1.1//EN" "http://www.w3.org/Graphics/SVG/1.1/DTD/svg11.dtd">
<svg version="1.1" id="nintendo" xmlns="http://www.w3.org/2000/svg" xmlns:xlink="http://www.w3.org/1999/xlink" x="0px" y="0px"
	 width="165px" height="80px" viewBox="-22.736 58.319 465 180" enable-background="new -22.736 58.319 465 180"
	 xml:space="preserve">
<path id="oval" fill="#ED323D" d="M357.729,99.573H62.469c-31.247-0.072-52.27,22.391-52.27,49.318
	c0,26.927,20.951,49.174,52.27,49.174h0.072h295.188c31.319,0,52.271-22.247,52.271-49.174
	C410,121.964,388.977,99.501,357.729,99.573z M357.514,185.969H62.541c-24.911,0.072-40.03-16.631-40.03-37.15
	s15.191-37.079,40.03-37.15h294.973c24.767,0.071,40.03,16.631,40.03,37.15S382.425,186.042,357.514,185.969z"/>
<polygon id="n_2_" fill="#ED323D" points="84.212,157.89 64.269,125.564 49.798,125.564 49.798,171.93 64.125,171.93 
	64.125,139.603 84.212,171.93 98.54,171.93 98.54,125.564 84.212,125.564 "/>
<polygon id="t" fill="#ED323D" points="197.968,136.58 190.408,136.58 190.408,130.316 176.44,130.316 176.44,136.58 
	168.881,136.58 168.881,141.115 176.44,141.115 176.44,171.93 190.408,171.93 190.408,141.115 197.968,141.115 "/>
<rect id="i_1_" x="106.531" y="141.115" fill="#ED323D" width="13.968" height="30.815"/>
<rect id="i" x="106.531" y="125.564" fill="#ED323D" width="13.968" height="9.432"/>
<path id="o_1_" fill="#ED323D" d="M350.818,138.956c-11.232,0-20.376,7.775-20.376,17.279c0,9.575,9.144,17.279,20.376,17.279
	c11.231,0,20.375-7.776,20.375-17.279C371.193,146.659,362.05,138.956,350.818,138.956z M356.434,156.235c0,0,0,0.027,0,0.071
	c0,0.575,0,4.739,0,6.48c0,4.896-2.88,6.911-5.688,6.911c-2.809,0-5.688-2.016-5.688-6.911c0-1.872,0-6.624,0-6.624s0-4.536,0-6.408
	c0-4.896,2.879-6.911,5.688-6.911c2.808,0,5.688,2.016,5.688,6.911C356.434,151.596,356.434,154.962,356.434,156.235z"/>
<path id="d" fill="#ED323D" d="M312.228,142.628c-2.232-1.225-4.608-2.448-7.92-2.736c-10.008-0.864-17.712,7.991-17.712,16.127
	c0,10.728,8.28,14.688,9.504,15.264c4.68,2.16,10.728,2.16,16.056-1.151c0,0.287,0,1.8,0,1.8h13.752v-46.366h-13.68
	C312.228,125.564,312.228,135.5,312.228,142.628z M312.228,156.306c0,0.043,0,0.072,0,0.072c0,0.483,0,3.546,0,5.399
	c0,4.752-3.312,5.977-5.472,5.977c-2.232,0-5.473-1.225-5.473-5.977c0-1.655,0-5.472,0-5.472s0-3.888,0-5.472
	c0-4.752,3.24-5.976,5.473-5.976c2.16,0,5.472,1.224,5.472,5.976C312.228,152.364,312.228,155.79,312.228,156.306z"/>
<path id="n_1_" fill="#ED323D" d="M153.114,139.676c-4.608,0.144-8.424,2.16-11.087,4.68c0-0.792,0-3.24,0-3.24h-13.824v30.815
	h13.824c0,0,0-18.936,0-20.231c0-2.736,2.808-5.688,6.624-5.688c3.744,0,6.335,3.023,6.335,5.688c0,1.943,0,20.231,0,20.231h13.824
	c0,0,0-14.616,0-16.775C168.881,142.915,158.297,139.531,153.114,139.676z"/>
<path id="n" fill="#ED323D" d="M266.438,139.676c-4.608,0.144-8.424,2.16-11.088,4.68c0-0.792,0-3.24,0-3.24h-13.823v30.815h13.823
	c0,0,0-18.936,0-20.231c0-2.736,2.808-5.688,6.624-5.688c3.743,0,6.335,3.023,6.335,5.688c0,1.943,0,20.231,0,20.231h13.824
	c0,0,0-14.616,0-16.775C282.205,142.915,271.621,139.531,266.438,139.676z"/>
<path id="e" fill="#ED323D" d="M237.206,156.667c0-9.576-9.216-17.495-20.591-17.495c-11.304,0-20.52,7.775-20.52,17.279
	c0,9.575,9.216,17.279,20.52,17.279c9.432,0,17.352-5.4,19.799-12.672H222.52v0.072c0,0,0,0.144,0,1.872
	c0,5.615-3.672,6.911-5.76,6.911s-5.832-1.224-5.832-6.911c0-1.656,0-6.336,0-6.336H237.206z M211.863,145.795
	c1.08-1.871,3.096-2.808,4.896-2.808c1.799,0,3.815,0.937,4.895,2.808c0.865,1.584,0.937,3.385,0.937,6.048h-11.663
	C210.928,149.107,210.928,147.307,211.863,145.795z"/>
<path id="r" fill="#ED323D" d="M378.393,129.019c0-2.088-1.224-3.023-3.744-3.023h-4.031v10.584h1.584h0.072v-4.608h1.8l2.808,4.608
	h1.8l-3.023-4.681C377.241,131.756,378.393,130.891,378.393,129.019z M372.273,130.603v-3.239h2.159
	c1.152,0,2.304,0.288,2.304,1.584c0,1.655-1.224,1.728-2.592,1.728l0.072-0.072H372.273z"/>
<path id="o" fill="#ED323D" d="M374.073,122.108c-5.04,0-9.288,3.888-9.288,9.144s4.248,9.144,9.288,9.144
	c4.968,0,9.216-3.815,9.216-9.144C383.289,125.996,379.041,122.108,374.073,122.108z M374.073,138.884
	c-4.176,0-7.416-3.24-7.416-7.632s3.24-7.632,7.416-7.632s7.415,3.312,7.415,7.632C381.488,135.643,378.249,138.884,374.073,138.884
	z"/>
</svg>
